<svg xmlns="http://www.w3.org/2000/svg" width="120" height="42" version="1.0"><path d="m3.408.453 113.354.201c1.584 0 3-.235 3 3.16l-.14 37.33H.547V3.676C.547 2 .71.453 3.408.453" style="fill:#aab2ab"/><path d="M117.753 0H2.248A2.25 2.25 0 0 0 0 2.247v39.246c0 .28.227.507.508.507h118.984c.28 0 .508-.227.508-.507V2.247A2.25 2.25 0 0 0 117.753 0M2.248 1.015h115.505c.68 0 1.232.553 1.232 1.232v27.22H36.428c-3.026 5.472-8.856 9.186-15.547 9.186S8.36 34.942 5.336 29.468h-4.32V2.247c0-.68.552-1.232 1.232-1.232"/><path d="M486.266-55.707c.006 8.681-7.028 15.722-15.708 15.727s-15.722-7.027-15.727-15.708v-.019c-.006-8.68 7.028-15.721 15.708-15.727 8.681-.005 15.722 7.028 15.727 15.708z" style="fill:#fff" transform="matrix(.8675 0 0 .8674 -387.31 67.87)"/><path d="M31.972 8.447q4.535 4.535 4.535 11.104 0 6.57-4.458 10.988-4.73 4.653-11.182 4.653-6.373 0-10.986-4.614-4.614-4.612-4.613-11.027 0-6.412 4.613-11.104Q14.377 3.91 20.867 3.91q6.569 0 11.105 4.536M11.917 10.48q-3.835 3.871-3.835 9.074t3.795 8.996q3.795 3.795 9.037 3.795t9.115-3.833q3.677-3.56 3.677-8.958 0-5.357-3.737-9.094-3.736-3.735-9.055-3.735-5.32 0-8.997 3.755m6.726 7.549q-.584-1.278-1.755-1.278-2.067 0-2.067 2.784t2.067 2.783q1.365 0 1.951-1.357l1.91 1.017q-1.366 2.428-4.098 2.428-2.109 0-3.377-1.292-1.27-1.293-1.27-3.564.001-2.23 1.31-3.543 1.306-1.312 3.259-1.312 2.887 0 4.14 2.275zm8.99 0q-.585-1.278-1.72-1.278-2.108 0-2.109 2.784t2.11 2.783q1.368 0 1.915-1.357l1.953 1.017q-1.365 2.428-4.092 2.428-2.105 0-3.372-1.292-1.265-1.293-1.266-3.564 0-2.23 1.287-3.543 1.285-1.312 3.273-1.312 2.885 0 4.13 2.275z"/><g transform="matrix(.99378 0 0 .99367 -437.123 -74.437)"><circle cx="491.946" cy="90.232" r="10.806" style="fill:#fff"/><path d="M495.074 87.105a.754.754 0 0 0-.754-.754h-4.773a.754.754 0 0 0-.754.754v4.773h1.332v5.652h3.617v-5.652h1.332z"/><circle cx="491.934" cy="84.09" r="1.632"/><path d="M491.918 78.325q-4.847 0-8.207 3.384-3.446 3.5-3.446 8.285 0 4.783 3.446 8.227 3.448 3.442 8.207 3.442 4.82 0 8.355-3.472 3.33-3.296 3.329-8.197 0-4.902-3.388-8.285t-8.296-3.384m.03 2.1q3.974 0 6.747 2.801 2.805 2.771 2.805 6.768 0 4.025-2.747 6.68-2.891 2.859-6.804 2.859-3.916 0-6.748-2.83t-2.833-6.71 2.862-6.767q2.746-2.8 6.719-2.801" clip-rule="evenodd" style="fill-rule:evenodd"/></g><path d="M488.563 107.867q.476 0 .87.084.39.084.673.276.279.19.435.507.153.318.154.785 0 .503-.23.838-.229.337-.677.551.618.177.922.621t.305 1.07q0 .504-.196.873-.197.368-.53.601-.33.235-.756.346a3.4 3.4 0 0 1-.875.112h-3.237v-6.664zm-.188 2.695q.393 0 .645-.186.253-.185.253-.605a.8.8 0 0 0-.084-.381.63.63 0 0 0-.225-.234 1 1 0 0 0-.322-.116 2 2 0 0 0-.379-.032h-1.373v1.555zm.086 2.829q.215 0 .412-.042.196-.044.346-.14a.7.7 0 0 0 .239-.267.9.9 0 0 0 .088-.428q0-.513-.29-.733-.29-.218-.766-.219h-1.6v1.829zm2.813-5.524h1.643l1.56 2.632 1.552-2.632h1.634l-2.475 4.107v2.557h-1.469v-2.594zm47.642 5.017q.12.232.32.378.2.144.472.215.27.07.558.07.195 0 .42-.033.221-.033.418-.126a.9.9 0 0 0 .326-.257.65.65 0 0 0 .13-.415.58.58 0 0 0-.173-.439 1.4 1.4 0 0 0-.451-.28 5 5 0 0 0-.634-.196 17 17 0 0 1-.718-.187 7 7 0 0 1-.727-.228 2.5 2.5 0 0 1-.634-.35 1.6 1.6 0 0 1-.451-.537 1.6 1.6 0 0 1-.173-.78q0-.513.219-.89.22-.379.573-.632.354-.252.803-.373.448-.12.894-.12.523 0 1.003.116t.853.378q.373.263.593.668.218.408.218.986h-1.422a1.2 1.2 0 0 0-.125-.495.8.8 0 0 0-.284-.308 1.2 1.2 0 0 0-.403-.158 2.5 2.5 0 0 0-.497-.047 1.7 1.7 0 0 0-.353.037 1 1 0 0 0-.32.13.8.8 0 0 0-.237.234.63.63 0 0 0-.093.355q0 .196.074.317.075.121.294.225.22.102.606.205t1.011.261q.187.037.517.136t.657.313.565.574q.237.36.237.92 0 .456-.178.85a1.84 1.84 0 0 1-.527.676q-.35.285-.868.444-.517.159-1.2.159-.55 0-1.068-.136a2.7 2.7 0 0 1-.914-.426 2.1 2.1 0 0 1-.63-.74q-.234-.447-.224-1.064h1.421q0 .337.122.57m8.256-5.017 2.493 6.664h-1.522l-.504-1.484h-2.492l-.523 1.484h-1.475l2.52-6.664zm.084 4.086-.84-2.443h-.019l-.867 2.443zm-34.426-4.086 2.785 4.47h.015v-4.47h1.375v6.664h-1.465l-2.774-4.462h-.018v4.462h-1.375v-6.664zm9.739 1.776a1.5 1.5 0 0 0-.77-.616 1.5 1.5 0 0 0-.518-.09q-.495 0-.841.192a1.6 1.6 0 0 0-.56.513 2.3 2.3 0 0 0-.313.732 3.6 3.6 0 0 0 0 1.665q.098.398.313.714.215.317.56.509t.84.191q.673 0 1.05-.411.38-.41.462-1.083h1.42a3.4 3.4 0 0 1-.29 1.13 2.6 2.6 0 0 1-1.513 1.403 3.3 3.3 0 0 1-1.128.188q-.766 0-1.378-.267a3 3 0 0 1-1.032-.732 3.3 3.3 0 0 1-.646-1.098 4 4 0 0 1-.225-1.36q0-.746.225-1.386t.646-1.116q.42-.477 1.032-.747t1.378-.27q.55 0 1.04.158.49.159.878.463.387.303.64.752.25.449.317 1.027h-1.42a1.2 1.2 0 0 0-.167-.461" style="fill:#fff" transform="matrix(.99378 0 0 .99367 -437.123 -74.437)"/><path d="M644.576-363.116c.008 9.412-7.617 17.048-17.03 17.055-9.412.006-17.046-7.617-17.054-17.031v-.024c-.007-9.411 7.619-17.047 17.03-17.055s17.047 7.619 17.054 17.03z" style="fill:#fff" transform="matrix(.6211 0 0 .62104 -285.772 240.49)"/><path d="M103.919 3.386q-4.819 0-8.156 3.362-3.426 3.478-3.426 8.233 0 4.753 3.426 8.174 3.425 3.42 8.156 3.42 4.79 0 8.301-3.448 3.31-3.277 3.31-8.146t-3.368-8.233q-3.366-3.362-8.243-3.362m.029 2.087q3.947 0 6.705 2.783 2.787 2.752 2.786 6.725 0 3.999-2.729 6.639-2.873 2.84-6.762 2.84-3.89 0-6.705-2.812t-2.815-6.667 2.844-6.725q2.728-2.783 6.676-2.783"/><path d="M98.78 13.345c.461-2.918 2.515-4.478 5.09-4.478 3.7 0 5.957 2.686 5.957 6.268 0 3.495-2.4 6.21-6.016 6.21-2.487 0-4.714-1.53-5.12-4.535h2.922c.087 1.56 1.1 2.109 2.546 2.109 1.648 0 2.718-1.53 2.718-3.87 0-2.456-.925-3.755-2.661-3.755-1.272 0-2.371.462-2.603 2.05l.85-.005-2.3 2.3-2.299-2.3z"/><path d="M87.801 14.981c.005 5.5-4.451 9.962-9.953 9.967-5.5.003-9.963-4.453-9.967-9.952v-.015c-.004-5.5 4.453-9.962 9.954-9.967 5.5-.003 9.963 4.453 9.966 9.952z" style="fill:#fff" transform="translate(0 .01)"/><path d="M86.07 6.755q-3.366-3.363-8.243-3.363-4.818 0-8.156 3.363-3.425 3.48-3.425 8.234-.001 4.755 3.425 8.175t8.156 3.421q4.79 0 8.302-3.45 3.31-3.277 3.31-8.146T86.07 6.755m-1.45 14.873q-2.875 2.84-6.764 2.84t-6.705-2.812-2.816-6.667q.001-1.63.511-3.084l3.073 1.36h-.222v1.378h1.088c0 .195-.02.389-.02.583v.33h-1.068v1.378h1.262c.175 1.03.563 1.864 1.087 2.524 1.088 1.437 2.835 2.214 4.737 2.214 1.243 0 2.369-.37 3.03-.739l-.467-2.154c-.408.214-1.32.504-2.213.504-.971 0-1.883-.29-2.504-.99-.292-.33-.505-.776-.64-1.359h4.22l5.997 2.655a9 9 0 0 1-1.587 2.04m-7.543-6.072-.026-.02.044.02zm3.61-.913h.174v-1.378h-3.287l-1.335-.59c.115-.26.25-.49.409-.671.602-.74 1.456-1.05 2.388-1.05.854 0 1.65.253 2.155.467l.543-2.214c-.7-.31-1.728-.581-2.912-.581-1.824 0-3.378.737-4.484 1.98a6 6 0 0 0-.652.938l-3.814-1.687q.553-.832 1.308-1.594 2.729-2.784 6.676-2.784t6.706 2.784q2.786 2.753 2.786 6.726-.001 1.309-.295 2.472z"/></svg>